<svg width="35" height="35" viewBox="0 0 35 35" fill="none" xmlns="http://www.w3.org/2000/svg">
<path d="M17.5 34.782C26.8287 34.782 34.391 27.2196 34.391 17.891C34.391 8.56236 26.8287 1 17.5 1C8.17137 1 0.609009 8.56236 0.609009 17.891C0.609009 27.2196 8.17137 34.782 17.5 34.782Z" fill="url(#paint0_linear_3_1417)" stroke="#8C5111" stroke-width="0.3" stroke-miterlimit="10"/>
<path d="M17.501 32.5781C25.6119 32.5781 32.187 26.0029 32.187 17.8921C32.187 9.7812 25.6119 3.20605 17.501 3.20605C9.39015 3.20605 2.815 9.7812 2.815 17.8921C2.815 26.0029 9.39015 32.5781 17.501 32.5781Z" fill="url(#paint1_linear_3_1417)" stroke="#8C5111" stroke-width="0.3" stroke-miterlimit="10"/>
<path d="M22.045 17.9775V14.3115H13.034V17.9775H15.302V23.1775C15.302 25.0295 15.812 26.3405 16.809 27.0775C17.7842 27.6783 18.9234 27.9581 20.066 27.8775C20.6615 27.8728 21.2564 27.8361 21.848 27.7675L22.036 27.7435V24.2745L21.808 24.2905C21.2776 24.3225 20.7459 24.3279 20.215 24.3065C19.9037 24.3078 19.6014 24.2019 19.359 24.0065C19.2596 23.8937 19.1846 23.7616 19.1386 23.6184C19.0927 23.4752 19.0768 23.3241 19.092 23.1745V17.9745L22.045 17.9775Z" fill="#965E16"/>
<path d="M17.312 12.9518C16.6428 12.9417 16.0039 12.6714 15.5306 12.1982C15.0574 11.725 14.7871 11.086 14.777 10.4168C14.7749 10.0814 14.8406 9.74913 14.9702 9.43981C15.0997 9.13048 15.2905 8.85055 15.531 8.61682C15.7591 8.37289 16.0351 8.17867 16.3418 8.04634C16.6484 7.91402 16.9791 7.84643 17.313 7.84781C17.6519 7.84402 17.9879 7.91038 18.2999 8.04273C18.612 8.17507 18.8932 8.37053 19.126 8.61682C19.366 8.85097 19.5564 9.13097 19.6859 9.4402C19.8154 9.74943 19.8815 10.0816 19.88 10.4168C19.8701 11.0916 19.5954 11.7354 19.1152 12.2096C18.6351 12.6838 17.9879 12.9503 17.313 12.9518H17.312Z" fill="#965E16"/>
<defs>
<linearGradient id="paint0_linear_3_1417" x1="0.609009" y1="17.891" x2="34.391" y2="17.891" gradientUnits="userSpaceOnUse">
<stop stop-color="#A46B23"/>
<stop offset="0.515" stop-color="#FFE485"/>
<stop offset="1" stop-color="#945612"/>
</linearGradient>
<linearGradient id="paint1_linear_3_1417" x1="7.48515" y1="7.8762" x2="28.2512" y2="28.6422" gradientUnits="userSpaceOnUse">
<stop stop-color="#A46B23"/>
<stop offset="0.515" stop-color="#FFE485"/>
<stop offset="1" stop-color="#945612"/>
</linearGradient>
</defs>
</svg>
