<svg width="32" height="31" viewBox="0 0 32 31" fill="none" xmlns="http://www.w3.org/2000/svg">
<path opacity="0.4" d="M13.793 26.083H22.414C24.115 26.0825 25.7461 25.4066 26.9488 24.2038C28.1516 23.0011 28.8275 21.37 28.828 19.669V11.33C28.8275 9.62909 28.1516 7.99797 26.9488 6.79523C25.7461 5.59249 24.115 4.91656 22.414 4.91603H13.793C12.899 4.91435 12.0146 5.10041 11.1971 5.46216C10.3795 5.82391 9.64703 6.35328 9.04702 7.01603L4.51902 11.997C3.64768 12.9544 3.16479 14.2025 3.16479 15.497C3.16479 16.7916 3.64768 18.0396 4.51902 18.997L9.04702 23.974C9.64623 24.6384 10.3784 25.1695 11.1959 25.5328C12.0135 25.8961 12.8983 26.0836 13.793 26.083Z" fill="#292D32"/>
<path d="M19.322 15.4988L21.811 13.0108C21.9836 12.8289 22.0783 12.5868 22.075 12.336C22.0717 12.0853 21.9706 11.8458 21.7933 11.6685C21.616 11.4912 21.3765 11.3901 21.1258 11.3868C20.8751 11.3835 20.6329 11.4782 20.451 11.6508L17.962 14.1398L15.474 11.6508C15.2921 11.4782 15.05 11.3835 14.7993 11.3868C14.5486 11.3901 14.309 11.4912 14.1317 11.6685C13.9544 11.8458 13.8534 12.0853 13.8501 12.336C13.8468 12.5868 13.9415 12.8289 14.114 13.0108L16.603 15.4988L14.114 17.9878C13.9352 18.1689 13.835 18.4132 13.835 18.6678C13.835 18.9223 13.9352 19.1666 14.114 19.3478C14.2032 19.4373 14.3092 19.5083 14.4259 19.5567C14.5426 19.6052 14.6677 19.6301 14.794 19.6301C14.9204 19.6301 15.0455 19.6052 15.1622 19.5567C15.2789 19.5083 15.3848 19.4373 15.474 19.3478L17.962 16.8588L20.451 19.3478C20.5402 19.4373 20.6462 19.5083 20.7629 19.5567C20.8796 19.6052 21.0047 19.6301 21.131 19.6301C21.2574 19.6301 21.3825 19.6052 21.4992 19.5567C21.6159 19.5083 21.7218 19.4373 21.811 19.3478C21.9898 19.1666 22.0901 18.9223 22.0901 18.6678C22.0901 18.4132 21.9898 18.1689 21.811 17.9878L19.322 15.4988Z" fill="#292D32"/>
</svg>
