<svg width="24" height="24" viewBox="0 0 24 24" fill="none" xmlns="http://www.w3.org/2000/svg">
<path d="M17.8 2.10049L7.86997 4.59049C7.0966 4.82709 6.39311 5.24988 5.82124 5.82175C5.24936 6.39363 4.82657 7.09712 4.58997 7.87049L2.09997 17.8005C1.34997 20.8005 3.18997 22.6505 6.19997 21.9005L16.13 19.4205C16.9017 19.1808 17.6036 18.7569 18.175 18.1855C18.7464 17.6141 19.1703 16.9122 19.41 16.1405L21.9 6.20049C22.65 3.20049 20.8 1.35049 17.8 2.10049Z" stroke="#5733D1" stroke-width="1.5" stroke-linecap="round" stroke-linejoin="round"/>
<path opacity="0.4" d="M15.5 12C15.5 12.6922 15.2947 13.3689 14.9101 13.9445C14.5256 14.5201 13.9789 14.9687 13.3394 15.2336C12.6999 15.4985 11.9961 15.5678 11.3172 15.4327C10.6383 15.2977 10.0146 14.9644 9.52513 14.4749C9.03564 13.9854 8.7023 13.3617 8.56725 12.6828C8.4322 12.0039 8.50152 11.3001 8.76642 10.6606C9.03133 10.0211 9.47993 9.47444 10.0555 9.08986C10.6311 8.70527 11.3078 8.5 12 8.5C12.9283 8.5 13.8185 8.86875 14.4749 9.52513C15.1313 10.1815 15.5 11.0717 15.5 12V12Z" stroke="#5733D1" stroke-width="1.5" stroke-linecap="round" stroke-linejoin="round"/>
</svg>
