<svg width="20" height="20" viewBox="0 0 20 20" fill="none" xmlns="http://www.w3.org/2000/svg">
<path opacity="0.4" d="M12.847 10.933H11.082C10.7371 10.9331 10.3956 10.8653 10.077 10.7335C9.75832 10.6017 9.46875 10.4083 9.22481 10.1646C8.98088 9.92083 8.78733 9.63141 8.65524 9.31286C8.52315 8.99431 8.4551 8.65286 8.45497 8.30801V6.54301C8.4551 6.46287 8.43941 6.38349 8.4088 6.30942C8.3782 6.23535 8.33327 6.16805 8.2766 6.11138C8.21993 6.05471 8.15263 6.00978 8.07856 5.97918C8.00449 5.94857 7.92511 5.93288 7.84497 5.93301H5.26697C4.81368 5.90703 4.36001 5.97719 3.93573 6.13886C3.51146 6.30054 3.12616 6.55009 2.8051 6.87114C2.48405 7.1922 2.2345 7.5775 2.07282 8.00178C1.91115 8.42605 1.84099 8.87972 1.86697 9.33301V14.733C1.84099 15.1863 1.91115 15.64 2.07282 16.0642C2.2345 16.4885 2.48405 16.8738 2.8051 17.1949C3.12616 17.5159 3.51146 17.7655 3.93573 17.9272C4.36001 18.0888 4.81368 18.159 5.26697 18.133H10.057C10.5103 18.159 10.9639 18.0888 11.3882 17.9272C11.8125 17.7655 12.1978 17.5159 12.5188 17.1949C12.8399 16.8738 13.0894 16.4885 13.2511 16.0642C13.4128 15.64 13.4829 15.1863 13.457 14.733V11.545C13.4574 11.4647 13.4419 11.3851 13.4114 11.3108C13.3809 11.2365 13.336 11.169 13.2793 11.1121C13.2226 11.0552 13.1552 11.0101 13.081 10.9794C13.0068 10.9486 12.9273 10.9329 12.847 10.933Z" fill="#707070" fill-opacity="0.68"/>
<path d="M14.733 1.86756H9.94299C9.50202 1.8423 9.06059 1.90834 8.64633 2.06156C8.23206 2.21477 7.85389 2.45186 7.53548 2.75797C7.21707 3.06408 6.96528 3.43263 6.79588 3.84054C6.62648 4.24845 6.54311 4.68694 6.55099 5.12856C6.59999 5.12856 6.63999 5.12056 6.68899 5.12056H11.479C11.9323 5.09458 12.3859 5.16473 12.8102 5.32641C13.2345 5.48809 13.6198 5.73764 13.9409 6.05869C14.2619 6.37974 14.5115 6.76505 14.6731 7.18932C14.8348 7.6136 14.905 8.06726 14.879 8.52056V13.9296C14.879 13.9786 14.871 14.0186 14.871 14.0596C15.3122 14.0687 15.7505 13.9865 16.1584 13.8181C16.5663 13.6497 16.9349 13.3988 17.2412 13.0811C17.5474 12.7634 17.7846 12.3857 17.938 11.9719C18.0913 11.5581 18.1573 11.1171 18.132 10.6766V5.26756C18.158 4.81435 18.0878 4.36078 17.9262 3.93657C17.7646 3.51237 17.5151 3.12712 17.1942 2.80608C16.8732 2.48505 16.4881 2.23547 16.0639 2.07373C15.6398 1.91199 15.1862 1.84173 14.733 1.86756Z" fill="#707070" fill-opacity="0.68"/>
<path d="M9.98299 6.05504C9.9279 5.9998 9.85786 5.96188 9.78149 5.94594C9.70513 5.93 9.62577 5.93674 9.55318 5.96533C9.48059 5.99391 9.41795 6.0431 9.37297 6.10684C9.32798 6.17057 9.30261 6.24607 9.29999 6.32404V8.45504C9.30892 8.89357 9.49106 9.31073 9.80659 9.6154C10.1221 9.92007 10.5454 10.0875 10.984 10.081C11.561 10.089 12.367 10.089 13.058 10.089C13.1351 10.0923 13.2114 10.0721 13.2768 10.0311C13.3423 9.99018 13.3938 9.93035 13.4245 9.85954C13.4553 9.78873 13.4638 9.71027 13.4491 9.63449C13.4344 9.55871 13.397 9.48917 13.342 9.43504C12.456 8.55204 10.878 6.96604 9.98299 6.05504Z" fill="#707070" fill-opacity="0.68"/>
</svg>
