<svg width="24" height="24" viewBox="0 0 24 24" fill="none" xmlns="http://www.w3.org/2000/svg">
<path opacity="0.4" d="M16.99 10.9297V13.0697C16.9908 13.9637 16.7519 14.8417 16.2982 15.612C15.8444 16.3824 15.1924 17.017 14.41 17.4497C14.24 17.5397 14.06 17.6297 13.87 17.7097C13.5883 17.8219 13.2971 17.9089 13 17.9697C12.6738 18.0337 12.3424 18.0671 12.01 18.0697H11.99C11.6576 18.0671 11.3262 18.0337 11 17.9697C10.7065 17.9075 10.4188 17.8205 10.14 17.7097L9.59001 17.4497C9.46001 17.3697 9.33001 17.2997 9.21001 17.2097C8.53212 16.7527 7.97693 16.1362 7.5933 15.4143C7.20968 14.6924 7.00937 13.8872 7.01001 13.0697V10.9297C7.01046 10.099 7.21659 9.28132 7.61001 8.54969C7.69001 8.40969 7.77001 8.26969 7.86001 8.13969C7.95001 8.00969 8.05001 7.87969 8.15001 7.74969C8.25001 7.61969 8.36001 7.50969 8.47001 7.39969C8.69784 7.17452 8.94551 6.97036 9.21001 6.78969C9.35001 6.69969 9.48001 6.60969 9.63001 6.52969C9.75001 6.46969 9.88001 6.39969 10.01 6.33969C10.175 6.26644 10.3456 6.20626 10.52 6.15969C10.6574 6.1137 10.7977 6.07696 10.94 6.04969C10.9748 6.03381 11.012 6.02368 11.05 6.01969C11.3597 5.95956 11.6745 5.92942 11.99 5.92969H12.01C12.3288 5.92942 12.6469 5.95956 12.96 6.01969C12.9717 6.02764 12.9859 6.03119 13 6.02969C13.16 6.06969 13.32 6.10969 13.48 6.15969C13.6368 6.20249 13.7905 6.25595 13.94 6.31969C14.09 6.38969 14.24 6.45969 14.38 6.52969C14.8003 6.76735 15.187 7.05992 15.53 7.39969C15.9937 7.86303 16.3614 8.41337 16.6119 9.01913C16.8625 9.62489 16.991 10.2742 16.99 10.9297Z" fill="#292D32"/>
<path d="M22 9.7504C21.8015 9.74909 21.6115 9.66965 21.4711 9.52929C21.3307 9.38892 21.2513 9.19891 21.25 9.0004V7.0004C21.2894 6.43213 21.2065 5.86202 21.0068 5.32852C20.8072 4.79502 20.4954 4.31054 20.0927 3.90775C19.6899 3.50496 19.2054 3.19323 18.6719 2.99358C18.1384 2.79393 17.5683 2.71101 17 2.7504H15C14.8015 2.74909 14.6115 2.66965 14.4711 2.52929C14.3307 2.38892 14.2513 2.19891 14.25 2.0004C14.2513 1.8019 14.3307 1.61189 14.4711 1.47152C14.6115 1.33115 14.8015 1.25171 15 1.2504H17C17.7668 1.20579 18.5343 1.32395 19.2521 1.59713C19.97 1.87031 20.6219 2.29233 21.165 2.83543C21.7081 3.37853 22.1301 4.03043 22.4033 4.74827C22.6765 5.46611 22.7946 6.23364 22.75 7.0004V9.0004C22.7487 9.19891 22.6693 9.38892 22.5289 9.52929C22.3885 9.66965 22.1985 9.74909 22 9.7504Z" fill="#292D32"/>
<path d="M1.99998 9.7504C1.80147 9.74909 1.61146 9.66965 1.47109 9.52929C1.33072 9.38892 1.25129 9.19891 1.24998 9.0004V7.0004C1.20536 6.23364 1.32352 5.46611 1.59671 4.74827C1.86989 4.03043 2.2919 3.37853 2.835 2.83543C3.37811 2.29233 4.03 1.87031 4.74784 1.59713C5.46568 1.32395 6.23321 1.20579 6.99998 1.2504H8.99998C9.19848 1.25171 9.38849 1.33115 9.52886 1.47152C9.66923 1.61189 9.74867 1.8019 9.74998 2.0004C9.74867 2.19891 9.66923 2.38892 9.52886 2.52929C9.38849 2.66965 9.19848 2.74909 8.99998 2.7504H6.99998C6.43171 2.71101 5.8616 2.79393 5.3281 2.99358C4.7946 3.19323 4.31011 3.50496 3.90732 3.90775C3.50453 4.31054 3.1928 4.79502 2.99315 5.32852C2.7935 5.86202 2.71058 6.43213 2.74998 7.0004V9.0004C2.74867 9.19891 2.66923 9.38892 2.52886 9.52929C2.38849 9.66965 2.19848 9.74909 1.99998 9.7504Z" fill="#292D32"/>
<path d="M17 22.75H15C14.8011 22.75 14.6103 22.671 14.4697 22.5303C14.329 22.3897 14.25 22.1989 14.25 22C14.25 21.8011 14.329 21.6103 14.4697 21.4697C14.6103 21.329 14.8011 21.25 15 21.25H17C17.5683 21.2894 18.1384 21.2065 18.6719 21.0068C19.2054 20.8072 19.6899 20.4954 20.0927 20.0927C20.4954 19.6899 20.8072 19.2054 21.0068 18.6719C21.2065 18.1384 21.2894 17.5683 21.25 17V15C21.25 14.8011 21.329 14.6103 21.4697 14.4697C21.6103 14.329 21.8011 14.25 22 14.25C22.1989 14.25 22.3897 14.329 22.5303 14.4697C22.671 14.6103 22.75 14.8011 22.75 15V17C22.7946 17.7668 22.6765 18.5343 22.4033 19.2521C22.1301 19.97 21.7081 20.6219 21.165 21.165C20.6219 21.7081 19.97 22.1301 19.2521 22.4033C18.5343 22.6765 17.7668 22.7946 17 22.75Z" fill="#292D32"/>
<path d="M8.99998 22.75H6.99998C6.23321 22.7946 5.46568 22.6765 4.74784 22.4033C4.03 22.1301 3.37811 21.7081 2.835 21.165C2.2919 20.6219 1.86989 19.97 1.59671 19.2521C1.32352 18.5343 1.20536 17.7668 1.24998 17V15C1.25129 14.8015 1.33072 14.6115 1.47109 14.4711C1.61146 14.3307 1.80147 14.2513 1.99998 14.25C2.19848 14.2513 2.38849 14.3307 2.52886 14.4711C2.66923 14.6115 2.74867 14.8015 2.74998 15V17C2.71058 17.5683 2.7935 18.1384 2.99315 18.6719C3.1928 19.2054 3.50453 19.6899 3.90732 20.0927C4.31011 20.4954 4.7946 20.8072 5.3281 21.0068C5.8616 21.2065 6.43171 21.2894 6.99998 21.25H8.99998C9.19889 21.25 9.38965 21.329 9.53031 21.4697C9.67096 21.6103 9.74998 21.8011 9.74998 22C9.74998 22.1989 9.67096 22.3897 9.53031 22.5303C9.38965 22.671 9.19889 22.75 8.99998 22.75Z" fill="#292D32"/>
<path d="M12 15.6304C11.364 15.6285 10.7546 15.3751 10.305 14.9254C9.85527 14.4757 9.60182 13.8663 9.59998 13.2304V10.7604C9.59998 10.1238 9.85283 9.51338 10.3029 9.0633C10.753 8.61321 11.3635 8.36035 12 8.36035C12.6365 8.36035 13.2469 8.61321 13.697 9.0633C14.1471 9.51338 14.4 10.1238 14.4 10.7604V13.2304C14.4 13.8669 14.1471 14.4773 13.697 14.9274C13.2469 15.3775 12.6365 15.6304 12 15.6304ZM12 9.87035C11.7613 9.87035 11.5324 9.96517 11.3636 10.134C11.1948 10.3027 11.1 10.5317 11.1 10.7704V13.2404C11.1 13.3585 11.1233 13.4756 11.1685 13.5848C11.2137 13.694 11.28 13.7932 11.3636 13.8767C11.4472 13.9603 11.5464 14.0266 11.6556 14.0718C11.7648 14.1171 11.8818 14.1404 12 14.1404C12.1182 14.1404 12.2352 14.1171 12.3444 14.0718C12.4536 14.0266 12.5528 13.9603 12.6364 13.8767C12.7199 13.7932 12.7862 13.694 12.8315 13.5848C12.8767 13.4756 12.9 13.3585 12.9 13.2404V10.7704C12.9 10.5317 12.8052 10.3027 12.6364 10.134C12.4676 9.96517 12.2387 9.87035 12 9.87035Z" fill="#292D32"/>
</svg>
