<svg width="24" height="24" viewBox="0 0 24 24" fill="none" xmlns="http://www.w3.org/2000/svg">
<path d="M18.04 13.55C17.8244 13.7595 17.6585 14.0147 17.5546 14.2968C17.4508 14.5789 17.4116 14.8807 17.44 15.18C17.5047 15.7038 17.7614 16.1849 18.1604 16.5303C18.5594 16.8758 19.0724 17.0609 19.6 17.05H21.5V18.24C21.4979 19.2366 21.1011 20.1917 20.3964 20.8964C19.6917 21.6011 18.7366 21.9979 17.74 22H6.26C5.26344 21.9979 4.30829 21.6011 3.60361 20.8964C2.89893 20.1917 2.50211 19.2366 2.5 18.24L2.5 11.51C2.50211 10.5134 2.89893 9.55829 3.60361 8.85361C4.30829 8.14893 5.26344 7.75211 6.26 7.75L17.74 7.75C18.7366 7.75211 19.6917 8.14893 20.3964 8.85361C21.1011 9.55829 21.4979 10.5134 21.5 11.51V12.95H19.48C19.212 12.948 18.9463 13.0002 18.6989 13.1033C18.4514 13.2063 18.2273 13.3583 18.04 13.55V13.55Z" stroke="#5733D1" stroke-width="1.5" stroke-linecap="round" stroke-linejoin="round"/>
<path opacity="0.4" d="M2.50001 12.4099V7.8399C2.49872 7.26053 2.67416 6.69454 3.00292 6.21748C3.33169 5.74041 3.79813 5.37496 4.34001 5.1699L12.28 2.1699C12.5674 2.06161 12.8767 2.02459 13.1815 2.06201C13.4863 2.09943 13.7775 2.21018 14.0302 2.38477C14.2828 2.55936 14.4894 2.79258 14.6322 3.06447C14.7749 3.33636 14.8497 3.63881 14.85 3.9459V7.7459" stroke="#5733D1" stroke-width="1.5" stroke-linecap="round" stroke-linejoin="round"/>
<path d="M22.56 13.9702V16.0302C22.5583 16.2968 22.453 16.5522 22.2664 16.7426C22.0798 16.9329 21.8265 17.0432 21.56 17.0502H19.6C19.0724 17.0612 18.5594 16.876 18.1604 16.5306C17.7614 16.1851 17.5047 15.704 17.44 15.1802C17.4116 14.881 17.4508 14.5791 17.5546 14.297C17.6585 14.0149 17.8244 13.7597 18.04 13.5502C18.2273 13.3585 18.4514 13.2066 18.6989 13.1035C18.9463 13.0004 19.212 12.9483 19.48 12.9502H21.56C21.8265 12.9573 22.0798 13.0676 22.2664 13.2579C22.453 13.4483 22.5583 13.7037 22.56 13.9702V13.9702Z" stroke="#5733D1" stroke-width="1.5" stroke-linecap="round" stroke-linejoin="round"/>
<path opacity="0.4" d="M7 12H14" stroke="#5733D1" stroke-width="1.5" stroke-linecap="round" stroke-linejoin="round"/>
</svg>
