<svg width="20" height="20" viewBox="0 0 20 20" fill="none" xmlns="http://www.w3.org/2000/svg">
<path opacity="0.4" d="M13.449 3.20898H6.54902C5.58545 3.21057 4.66185 3.59426 3.98079 4.27588C3.29973 4.9575 2.91681 5.88142 2.91602 6.84498L2.91602 14.498C2.91839 15.4616 3.30223 16.385 3.9836 17.0664C4.66497 17.7478 5.58842 18.1316 6.55202 18.134H13.441C14.4051 18.1332 15.3295 17.7499 16.0112 17.0681C16.6929 16.3864 17.0762 15.4621 17.077 14.498V6.84498C17.0782 6.36784 16.9852 5.89515 16.8034 5.454C16.6216 5.01284 16.3545 4.6119 16.0175 4.27413C15.6805 3.93637 15.2801 3.66842 14.8394 3.48564C14.3986 3.30287 13.9262 3.20885 13.449 3.20898Z" fill="#292D32" fill-opacity="0.57"/>
<path d="M11.911 1.8672H8.08797C7.68147 1.86641 7.29128 2.02699 7.00309 2.31367C6.7149 2.60036 6.55229 2.98971 6.55097 3.3962V4.1612C6.5507 4.36207 6.59007 4.56101 6.66682 4.74664C6.74356 4.93226 6.85618 5.10092 6.99821 5.24296C7.14025 5.38499 7.30891 5.49761 7.49453 5.57435C7.68016 5.6511 7.8791 5.69047 8.07997 5.6902H11.911C12.1118 5.69047 12.3108 5.6511 12.4964 5.57435C12.682 5.49761 12.8507 5.38499 12.9927 5.24296C13.1348 5.10092 13.2474 4.93226 13.3241 4.74664C13.4009 4.56101 13.4402 4.36207 13.44 4.1612V3.3962C13.4409 3.19515 13.402 2.99591 13.3255 2.80999C13.249 2.62406 13.1364 2.45514 12.9942 2.31297C12.852 2.17081 12.6831 2.05822 12.4972 1.9817C12.3113 1.90519 12.112 1.86628 11.911 1.8672Z" fill="#292D32" fill-opacity="0.57"/>
</svg>
