<svg width="34" height="34" viewBox="0 0 34 34" fill="none" xmlns="http://www.w3.org/2000/svg">
<path opacity="0.4" d="M30.815 16.8078C30.815 19.5781 29.9935 22.2862 28.4544 24.5897C26.9153 26.8931 24.7277 28.6884 22.1682 29.7486C19.6088 30.8087 16.7924 31.0861 14.0753 30.5456C11.3582 30.0052 8.86244 28.6711 6.90353 26.7122C4.94461 24.7533 3.61057 22.2575 3.07011 19.5404C2.52965 16.8233 2.80703 14.007 3.86719 11.4475C4.92735 8.88809 6.72266 6.7005 9.0261 5.16139C11.3295 3.62228 14.0376 2.80078 16.808 2.80078C20.5229 2.80078 24.0856 4.27651 26.7124 6.90334C29.3392 9.53016 30.815 13.0929 30.815 16.8078Z" fill="#5733D1"/>
<path d="M9.21298 14.9897C9.13203 14.9903 9.05176 14.9749 8.97685 14.9442C8.90193 14.9135 8.83387 14.8683 8.77663 14.811C8.71939 14.7538 8.67411 14.6857 8.64344 14.6108C8.61277 14.5359 8.59732 14.4556 8.59798 14.3747V12.5287C8.6001 11.4868 9.01493 10.4881 9.75168 9.75138C10.4884 9.01463 11.4871 8.59979 12.529 8.59768H14.375C14.4559 8.59701 14.5362 8.61246 14.6111 8.64313C14.686 8.6738 14.7541 8.71908 14.8113 8.77632C14.8686 8.83356 14.9139 8.90162 14.9445 8.97654C14.9752 9.05146 14.9906 9.13173 14.99 9.21268C14.9906 9.29363 14.9752 9.3739 14.9445 9.44881C14.9139 9.52373 14.8686 9.59179 14.8113 9.64903C14.7541 9.70627 14.686 9.75155 14.6111 9.78222C14.5362 9.81289 14.4559 9.82834 14.375 9.82768H12.529C11.8129 9.82768 11.1261 10.1121 10.6198 10.6185C10.1134 11.1248 9.82898 11.8116 9.82898 12.5277V14.3747C9.82898 14.4555 9.81304 14.5356 9.78207 14.6103C9.7511 14.6849 9.70571 14.7528 9.6485 14.8099C9.59129 14.867 9.52337 14.9123 9.44864 14.9432C9.37391 14.974 9.29383 14.9898 9.21298 14.9897Z" fill="#5733D1"/>
<path d="M23.963 14.9897C23.8822 14.9897 23.8023 14.9737 23.7276 14.9428C23.653 14.9119 23.5852 14.8666 23.5281 14.8095C23.471 14.7524 23.4257 14.6846 23.3948 14.61C23.3639 14.5354 23.348 14.4554 23.348 14.3747V12.5287C23.348 11.8126 23.0635 11.1258 22.5572 10.6195C22.0508 10.1131 21.3641 9.82866 20.648 9.82866H18.801C18.6377 9.82866 18.4812 9.76381 18.3658 9.64838C18.2503 9.53295 18.1855 9.3764 18.1855 9.21316C18.1855 9.04992 18.2503 8.89336 18.3658 8.77793C18.4812 8.6625 18.6377 8.59766 18.801 8.59766H20.647C21.6889 8.59977 22.6875 9.01461 23.4243 9.75135C24.161 10.4881 24.5759 11.4867 24.578 12.5287V14.3747C24.5787 14.4556 24.5632 14.5359 24.5325 14.6108C24.5019 14.6857 24.4566 14.7538 24.3993 14.811C24.3421 14.8683 24.274 14.9135 24.1991 14.9442C24.1242 14.9749 24.0439 14.9903 23.963 14.9897Z" fill="#5733D1"/>
<path d="M20.647 24.5777H19.536C19.3729 24.5777 19.2165 24.5129 19.1011 24.3976C18.9858 24.2822 18.921 24.1258 18.921 23.9627C18.921 23.7996 18.9858 23.6432 19.1011 23.5278C19.2165 23.4125 19.3729 23.3477 19.536 23.3477H20.647C21.3631 23.3477 22.0499 23.0632 22.5562 22.5569C23.0626 22.0506 23.347 21.3638 23.347 20.6477V19.5437C23.347 19.3806 23.4118 19.2242 23.5271 19.1088C23.6425 18.9935 23.7989 18.9287 23.962 18.9287C24.1251 18.9287 24.2816 18.9935 24.3969 19.1088C24.5122 19.2242 24.577 19.3806 24.577 19.5437V20.6437C24.5757 21.686 24.1614 22.6852 23.4247 23.4226C22.6881 24.16 21.6893 24.5753 20.647 24.5777Z" fill="#5733D1"/>
<path d="M14.375 24.5776H12.529C11.4871 24.5755 10.4884 24.1606 9.75168 23.4239C9.01493 22.6871 8.6001 21.6885 8.59798 20.6466V18.8006C8.59732 18.7196 8.61277 18.6393 8.64344 18.5644C8.67411 18.4895 8.71939 18.4215 8.77663 18.3642C8.83387 18.307 8.90193 18.2617 8.97685 18.231C9.05176 18.2004 9.13203 18.1849 9.21298 18.1856C9.29393 18.1849 9.3742 18.2004 9.44912 18.231C9.52403 18.2617 9.5921 18.307 9.64934 18.3642C9.70658 18.4215 9.75185 18.4895 9.78253 18.5644C9.8132 18.6393 9.82865 18.7196 9.82798 18.8006V20.6466C9.82798 21.3627 10.1124 22.0494 10.6188 22.5558C11.1251 23.0621 11.8119 23.3466 12.528 23.3466H14.375C14.5381 23.3466 14.6945 23.4114 14.8099 23.5267C14.9252 23.642 14.99 23.7985 14.99 23.9616C14.99 24.1247 14.9252 24.2811 14.8099 24.3964C14.6945 24.5118 14.5381 24.5766 14.375 24.5766V24.5776Z" fill="#5733D1"/>
<path d="M21.749 15.9727H11.426C11.2629 15.9727 11.1064 16.0375 10.9911 16.1528C10.8758 16.2681 10.811 16.4245 10.811 16.5877C10.811 16.7508 10.8758 16.9072 10.9911 17.0225C11.1064 17.1379 11.2629 17.2027 11.426 17.2027H21.749C21.9121 17.2027 22.0685 17.1379 22.1838 17.0225C22.2992 16.9072 22.364 16.7508 22.364 16.5877C22.364 16.4245 22.2992 16.2681 22.1838 16.1528C22.0685 16.0375 21.9121 15.9727 21.749 15.9727V15.9727Z" fill="#5733D1"/>
<path d="M12.513 18.1379V18.4009C12.5122 18.7163 12.5737 19.0287 12.6941 19.3203C12.8144 19.6118 12.9911 19.8767 13.2142 20.0997C13.4372 20.3227 13.7021 20.4995 13.9936 20.6198C14.2852 20.7401 14.5976 20.8017 14.913 20.8009H18.266C18.5814 20.8017 18.8938 20.7401 19.1854 20.6198C19.4769 20.4995 19.7418 20.3227 19.9648 20.0997C20.1878 19.8767 20.3646 19.6118 20.4849 19.3203C20.6052 19.0287 20.6668 18.7163 20.666 18.4009V18.1379C20.6666 18.1154 20.6625 18.0931 20.6541 18.0722C20.6456 18.0514 20.633 18.0325 20.617 18.0167C20.6009 18.001 20.5818 17.9887 20.5609 17.9806C20.5399 17.9726 20.5174 17.9689 20.495 17.9699H12.681C12.6588 17.9693 12.6367 17.9733 12.6161 17.9815C12.5954 17.9898 12.5767 18.0022 12.561 18.0179C12.5453 18.0336 12.5329 18.0523 12.5247 18.0729C12.5164 18.0936 12.5124 18.1157 12.513 18.1379Z" fill="#5733D1"/>
<path d="M12.513 15.038V14.777C12.5122 14.4616 12.5738 14.1491 12.6941 13.8576C12.8144 13.566 12.9912 13.3012 13.2142 13.0781C13.4372 12.8551 13.7021 12.6784 13.9937 12.558C14.2852 12.4377 14.5976 12.3762 14.913 12.377H18.266C18.5814 12.3762 18.8939 12.4377 19.1854 12.558C19.4769 12.6784 19.7418 12.8551 19.9649 13.0781C20.1879 13.3012 20.3646 13.566 20.485 13.8576C20.6053 14.1491 20.6668 14.4616 20.666 14.777V15.041C20.6666 15.0632 20.6626 15.0853 20.6544 15.1059C20.6461 15.1265 20.6338 15.1453 20.618 15.161C20.6023 15.1767 20.5836 15.189 20.563 15.1973C20.5423 15.2055 20.5202 15.2095 20.498 15.209H12.681C12.6586 15.2095 12.6362 15.2055 12.6154 15.197C12.5945 15.1886 12.5756 15.176 12.5599 15.1599C12.5441 15.1439 12.5318 15.1248 12.5238 15.1038C12.5157 15.0828 12.5121 15.0604 12.513 15.038Z" fill="#5733D1"/>
</svg>
