<svg width="34" height="34" viewBox="0 0 34 34" fill="none" xmlns="http://www.w3.org/2000/svg">
<path opacity="0.4" d="M31.007 17.0002C31.007 19.7705 30.1855 22.4786 28.6464 24.782C27.1073 27.0855 24.9197 28.8808 22.3602 29.9409C19.8008 31.0011 16.9844 31.2785 14.2674 30.738C11.5503 30.1976 9.05446 28.8635 7.09554 26.9046C5.13663 24.9457 3.80259 22.4499 3.26213 19.7328C2.72166 17.0157 2.99905 14.1994 4.05921 11.6399C5.11936 9.08047 6.91468 6.89288 9.21811 5.35377C11.5216 3.81466 14.2297 2.99316 17 2.99316C20.7149 2.99316 24.2776 4.4689 26.9044 7.09572C29.5313 9.72254 31.007 13.2853 31.007 17.0002Z" fill="#5733D1"/>
<path d="M22.603 15.9477H18.047V11.3987C18.0352 11.1282 17.9195 10.8726 17.7238 10.6854C17.5282 10.4981 17.2679 10.3936 16.997 10.3936C16.7262 10.3936 16.4659 10.4981 16.2703 10.6854C16.0746 10.8726 15.9589 11.1282 15.947 11.3987V15.9477H11.398C11.1275 15.9595 10.8719 16.0753 10.6847 16.2709C10.4974 16.4666 10.3929 16.7269 10.3929 16.9977C10.3929 17.2685 10.4974 17.5289 10.6847 17.7245C10.8719 17.9201 11.1275 18.0359 11.398 18.0477H15.947V22.5997C15.9589 22.8703 16.0746 23.1258 16.2703 23.3131C16.4659 23.5004 16.7262 23.6049 16.997 23.6049C17.2679 23.6049 17.5282 23.5004 17.7238 23.3131C17.9195 23.1258 18.0352 22.8703 18.047 22.5997V18.0477H22.599C22.8696 18.0359 23.1251 17.9201 23.3124 17.7245C23.4997 17.5289 23.6042 17.2685 23.6042 16.9977C23.6042 16.7269 23.4997 16.4666 23.3124 16.2709C23.1251 16.0753 22.8696 15.9595 22.599 15.9477H22.603Z" fill="#5733D1"/>
</svg>
