<svg width="34" height="34" viewBox="0 0 34 34" fill="none" xmlns="http://www.w3.org/2000/svg">
<path opacity="0.4" d="M31.007 17.0002C31.007 19.7705 30.1855 22.4786 28.6464 24.782C27.1073 27.0855 24.9197 28.8808 22.3602 29.9409C19.8008 31.0011 16.9844 31.2785 14.2674 30.738C11.5503 30.1976 9.05446 28.8635 7.09554 26.9046C5.13663 24.9457 3.80259 22.4499 3.26213 19.7328C2.72166 17.0157 2.99905 14.1994 4.05921 11.6399C5.11936 9.08047 6.91468 6.89288 9.21811 5.35377C11.5216 3.81466 14.2297 2.99316 17 2.99316C20.7149 2.99316 24.2776 4.4689 26.9044 7.09572C29.5313 9.72254 31.007 13.2853 31.007 17.0002Z" fill="#5733D1"/>
<path d="M21.945 15.5581L17.742 11.3511C17.5442 11.1562 17.2777 11.0469 17 11.0469C16.7223 11.0469 16.4558 11.1562 16.258 11.3511L12.051 15.5581C11.8542 15.7555 11.7439 16.0231 11.7444 16.3019C11.7449 16.5806 11.856 16.8478 12.0535 17.0446C12.251 17.2414 12.5185 17.3517 12.7973 17.3512C13.076 17.3507 13.3432 17.2395 13.54 17.0421L15.951 14.6331V21.9031C15.9628 22.1736 16.0786 22.4292 16.2742 22.6165C16.4698 22.8037 16.7302 22.9083 17.001 22.9083C17.2718 22.9083 17.5322 22.8037 17.7278 22.6165C17.9234 22.4292 18.0392 22.1736 18.051 21.9031V14.6331L20.46 17.0421C20.5574 17.1398 20.6731 17.2174 20.8005 17.2703C20.9279 17.3233 21.0645 17.3505 21.2025 17.3505C21.3405 17.3505 21.4771 17.3233 21.6045 17.2703C21.7319 17.2174 21.8476 17.1398 21.945 17.0421C22.1399 16.8443 22.2492 16.5778 22.2492 16.3001C22.2492 16.0224 22.1399 15.7559 21.945 15.5581Z" fill="#5733D1"/>
</svg>
