<svg width="24" height="24" viewBox="0 0 24 24" fill="none" xmlns="http://www.w3.org/2000/svg">
<path opacity="0.34" d="M15 12C15 12.5933 14.8241 13.1734 14.4944 13.6667C14.1648 14.1601 13.6962 14.5446 13.1481 14.7716C12.5999 14.9987 11.9967 15.0581 11.4147 14.9424C10.8328 14.8266 10.2982 14.5409 9.87868 14.1213C9.45912 13.7018 9.1734 13.1672 9.05765 12.5853C8.94189 12.0033 9.0013 11.4001 9.22836 10.8519C9.45543 10.3038 9.83994 9.83524 10.3333 9.50559C10.8266 9.17595 11.4067 9 12 9C12.7957 9 13.5587 9.31607 14.1213 9.87868C14.6839 10.4413 15 11.2044 15 12Z" stroke="#292D32" stroke-width="1.5" stroke-linecap="round" stroke-linejoin="round"/>
<path d="M2 12.8799V11.1199C2.00158 10.6165 2.20227 10.1341 2.55825 9.77812C2.91422 9.42214 3.39658 9.22146 3.9 9.21987C5.71 9.21987 6.45 7.93987 5.54 6.36987C5.29015 5.93342 5.22353 5.4157 5.35474 4.93021C5.48596 4.44472 5.8043 4.03105 6.24 3.77987L7.97 2.78987C8.35203 2.56761 8.80663 2.50595 9.23406 2.61843C9.6615 2.73092 10.0269 3.00835 10.25 3.38987L10.36 3.57987C11.26 5.14987 12.74 5.14987 13.65 3.57987L13.76 3.38987C13.9831 3.00835 14.3485 2.73092 14.7759 2.61843C15.2034 2.50595 15.658 2.56761 16.04 2.78987L17.77 3.77987C18.2057 4.03105 18.524 4.44472 18.6553 4.93021C18.7865 5.4157 18.7199 5.93342 18.47 6.36987C17.56 7.93987 18.3 9.21987 20.11 9.21987C20.6134 9.22146 21.0958 9.42214 21.4518 9.77812C21.8077 10.1341 22.0084 10.6165 22.01 11.1199V12.8799C22.0084 13.3833 21.8077 13.8657 21.4518 14.2216C21.0958 14.5776 20.6134 14.7783 20.11 14.7799C18.3 14.7799 17.56 16.0599 18.47 17.6299C18.7199 18.0663 18.7865 18.584 18.6553 19.0695C18.524 19.555 18.2057 19.9687 17.77 20.2199L16.04 21.2099C15.658 21.4321 15.2034 21.4938 14.7759 21.3813C14.3485 21.2688 13.9831 20.9914 13.76 20.6099L13.65 20.4199C12.75 18.8499 11.27 18.8499 10.36 20.4199L10.25 20.6099C10.0269 20.9914 9.6615 21.2688 9.23406 21.3813C8.80663 21.4938 8.35203 21.4321 7.97 21.2099L6.24 20.2199C5.8043 19.9687 5.48596 19.555 5.35474 19.0695C5.22353 18.584 5.29015 18.0663 5.54 17.6299C6.45 16.0599 5.71 14.7799 3.9 14.7799C3.39658 14.7783 2.91422 14.5776 2.55825 14.2216C2.20227 13.8657 2.00158 13.3833 2 12.8799V12.8799Z" stroke="#292D32" stroke-width="1.5" stroke-linecap="round" stroke-linejoin="round"/>
</svg>
