<svg width="200" height="28" viewBox="0 0 200 28" fill="none" xmlns="http://www.w3.org/2000/svg">
<path d="M115.921 0.894531V27.8945" stroke="#00EBB0" stroke-width="3"/>
<path d="M139.034 9.82182C138.974 9.22026 138.718 8.75293 138.265 8.41983C137.813 8.08674 137.199 7.92019 136.424 7.92019C135.897 7.92019 135.452 7.99476 135.089 8.14391C134.726 8.28809 134.447 8.48944 134.253 8.74796C134.064 9.00648 133.97 9.2998 133.97 9.62793C133.96 9.90137 134.017 10.14 134.142 10.3438C134.271 10.5477 134.447 10.7242 134.671 10.8733C134.895 11.0175 135.153 11.1443 135.447 11.2536C135.74 11.358 136.053 11.4475 136.386 11.5221L137.758 11.8502C138.425 11.9994 139.036 12.1982 139.593 12.4468C140.15 12.6954 140.632 13.0012 141.04 13.3641C141.447 13.727 141.763 14.1546 141.987 14.6468C142.215 15.1389 142.332 15.7032 142.337 16.3396C142.332 17.2742 142.094 18.0846 141.621 18.7707C141.154 19.4518 140.478 19.9813 139.593 20.3591C138.713 20.732 137.651 20.9184 136.409 20.9184C135.176 20.9184 134.102 20.7295 133.187 20.3517C132.277 19.9738 131.566 19.4145 131.054 18.6737C130.547 17.928 130.281 17.0058 130.256 15.907H133.381C133.416 16.4191 133.562 16.8467 133.821 17.1897C134.084 17.5278 134.435 17.7838 134.872 17.9578C135.315 18.1269 135.814 18.2114 136.371 18.2114C136.918 18.2114 137.393 18.1318 137.796 17.9727C138.203 17.8137 138.519 17.5924 138.743 17.309C138.966 17.0257 139.078 16.7 139.078 16.3321C139.078 15.9891 138.976 15.7007 138.773 15.4671C138.574 15.2334 138.28 15.0345 137.893 14.8705C137.51 14.7064 137.04 14.5573 136.483 14.423L134.82 14.0054C133.533 13.6922 132.516 13.2025 131.77 12.5363C131.024 11.8701 130.654 10.9727 130.659 9.84419C130.654 8.91948 130.9 8.11159 131.397 7.42054C131.899 6.72949 132.588 6.19007 133.463 5.80229C134.338 5.41451 135.332 5.22061 136.446 5.22061C137.579 5.22061 138.569 5.41451 139.414 5.80229C140.264 6.19007 140.925 6.72949 141.398 7.42054C141.87 8.11159 142.113 8.91202 142.128 9.82182H139.034ZM144.45 20.7021V9.2476H147.626V20.7021H144.45ZM146.045 7.77104C145.573 7.77104 145.168 7.61443 144.83 7.30122C144.497 6.98304 144.33 6.60272 144.33 6.16024C144.33 5.72274 144.497 5.34739 144.83 5.03418C145.168 4.716 145.573 4.55691 146.045 4.55691C146.518 4.55691 146.92 4.716 147.253 5.03418C147.592 5.34739 147.761 5.72274 147.761 6.16024C147.761 6.60272 147.592 6.98304 147.253 7.30122C146.92 7.61443 146.518 7.77104 146.045 7.77104ZM155.332 25.2362C154.303 25.2362 153.42 25.0945 152.684 24.8112C151.954 24.5328 151.372 24.1524 150.939 23.6702C150.507 23.1879 150.226 22.646 150.097 22.0445L153.035 21.6492C153.124 21.8779 153.266 22.0917 153.46 22.2906C153.654 22.4894 153.91 22.6485 154.228 22.7678C154.551 22.8921 154.944 22.9543 155.406 22.9543C156.097 22.9543 156.667 22.7852 157.114 22.4472C157.566 22.1141 157.793 21.5548 157.793 20.7693V18.6737H157.658C157.519 18.9919 157.31 19.2927 157.032 19.5761C156.754 19.8595 156.396 20.0906 155.958 20.2696C155.521 20.4486 154.999 20.5381 154.392 20.5381C153.532 20.5381 152.749 20.3392 152.043 19.9415C151.342 19.5388 150.783 18.9248 150.365 18.0995C149.952 17.2693 149.746 16.2203 149.746 14.9525C149.746 13.6549 149.957 12.5711 150.38 11.7011C150.803 10.8311 151.364 10.1798 152.065 9.74725C152.771 9.31472 153.544 9.09846 154.385 9.09846C155.026 9.09846 155.563 9.20783 155.995 9.42658C156.428 9.64036 156.776 9.90882 157.039 10.232C157.308 10.5502 157.514 10.8634 157.658 11.1716H157.778V9.2476H160.932V20.814C160.932 21.7884 160.694 22.6038 160.216 23.26C159.739 23.9163 159.078 24.4085 158.233 24.7366C157.392 25.0697 156.425 25.2362 155.332 25.2362ZM155.399 18.1517C155.911 18.1517 156.343 18.0249 156.696 17.7714C157.054 17.5129 157.328 17.145 157.517 16.6677C157.711 16.1855 157.808 15.6088 157.808 14.9376C157.808 14.2664 157.713 13.6847 157.524 13.1926C157.335 12.6954 157.062 12.3101 156.704 12.0367C156.346 11.7632 155.911 11.6265 155.399 11.6265C154.877 11.6265 154.437 11.7682 154.079 12.0516C153.721 12.33 153.45 12.7178 153.266 13.2149C153.082 13.7121 152.99 14.2863 152.99 14.9376C152.99 15.5988 153.082 16.1705 153.266 16.6528C153.455 17.1301 153.726 17.5004 154.079 17.7639C154.437 18.0225 154.877 18.1517 155.399 18.1517ZM166.637 14.08V20.7021H163.46V9.2476H166.488V11.2686H166.622C166.876 10.6024 167.301 10.0754 167.897 9.68759C168.494 9.29483 169.217 9.09846 170.068 9.09846C170.863 9.09846 171.556 9.27246 172.148 9.62047C172.74 9.96848 173.2 10.4656 173.528 11.1119C173.856 11.7533 174.02 12.5189 174.02 13.4088V20.7021H170.843V13.9756C170.848 13.2746 170.669 12.7277 170.306 12.335C169.943 11.9372 169.444 11.7384 168.807 11.7384C168.38 11.7384 168.002 11.8303 167.674 12.0143C167.351 12.1982 167.097 12.4667 166.913 12.8197C166.734 13.1677 166.642 13.5878 166.637 14.08ZM184.673 5.42942V20.7021H181.444V5.42942H184.673ZM190.447 14.08V20.7021H187.27V9.2476H190.298V11.2686H190.432C190.685 10.6024 191.11 10.0754 191.707 9.68759C192.304 9.29483 193.027 9.09846 193.877 9.09846C194.673 9.09846 195.366 9.27246 195.958 9.62047C196.549 9.96848 197.009 10.4656 197.337 11.1119C197.665 11.7533 197.829 12.5189 197.829 13.4088V20.7021H194.653V13.9756C194.658 13.2746 194.479 12.7277 194.116 12.335C193.753 11.9372 193.253 11.7384 192.617 11.7384C192.189 11.7384 191.811 11.8303 191.483 12.0143C191.16 12.1982 190.907 12.4667 190.723 12.8197C190.544 13.1677 190.452 13.5878 190.447 14.08Z" fill="#5733D1"/>
<path d="M3.58701 13.1726C4.5726 12.8425 5.58321 12.5923 6.60901 12.4246C7.72646 12.1898 8.89056 12.3433 9.90901 12.8596C10.2128 13.094 10.4514 13.4024 10.602 13.7554C10.7526 14.1084 10.8101 14.4941 10.769 14.8756H7.80201C5.93171 14.7334 4.065 15.1935 2.47501 16.1886C1.91456 16.6161 1.46524 17.1722 1.165 17.8099C0.864758 18.4476 0.72242 19.1483 0.750009 19.8526C0.73621 20.8706 0.988905 21.8745 1.48301 22.7646C2.00554 23.5458 2.74233 24.1597 3.60501 24.5326C4.63943 24.9823 5.75938 25.2014 6.88701 25.1746C9.88701 25.1746 10.852 23.5396 10.852 23.5396V24.9326H15.11V15.5606C15.11 13.1186 14.561 11.2606 13.264 10.0806C12.4658 9.38893 11.5328 8.87041 10.524 8.55783C9.51515 8.24525 8.45242 8.1454 7.40301 8.2646C5.52239 8.36575 3.66798 8.75147 1.90301 9.4086L3.58701 13.1726ZM10.772 19.5536C10.661 20.1655 10.3198 20.7116 9.81853 21.0797C9.31728 21.4478 8.69407 21.6098 8.07701 21.5326C7.38819 21.5699 6.70349 21.4051 6.10701 21.0586C5.88464 20.9263 5.70115 20.7376 5.57508 20.5116C5.44901 20.2856 5.38482 20.0303 5.38901 19.7716C5.38901 18.6336 6.36601 18.0646 8.32001 18.0646H10.771L10.772 19.5536Z" fill="#5733D1"/>
<path d="M30.227 17.2576C29.6751 16.5338 28.9333 15.9772 28.084 15.6496C27.2931 15.3472 26.4851 15.0918 25.664 14.8846C24.9835 14.7239 24.3201 14.4979 23.683 14.2096C23 13.8876 23 13.5376 23 13.4236C22.9958 13.2778 23.0307 13.1334 23.101 13.0056C23.1713 12.8778 23.2746 12.7711 23.4 12.6966C23.7489 12.4841 24.1529 12.3797 24.561 12.3966C25.0454 12.3714 25.5256 12.4981 25.9345 12.7589C26.3434 13.0197 26.6607 13.4017 26.842 13.8516L26.96 14.1016L30.895 11.9556L30.764 11.7256C30.1614 10.6442 29.2676 9.75345 28.184 9.15459C27.0746 8.55164 25.8297 8.24186 24.567 8.25459C22.977 8.20349 21.417 8.69551 20.144 9.64959C19.5548 10.1029 19.0825 10.6906 18.7668 11.3637C18.451 12.0368 18.3009 12.7757 18.329 13.5186C18.2961 14.5046 18.612 15.4705 19.221 16.2466C19.7844 16.9468 20.5201 17.4886 21.356 17.8186C22.1461 18.1332 22.9542 18.4004 23.776 18.6186C24.4564 18.789 25.1201 19.0203 25.759 19.3096C26.443 19.6326 26.443 19.9816 26.443 20.0966C26.443 20.3666 26.443 21.1886 24.534 21.1886C23.9179 21.257 23.2973 21.1078 22.7795 20.7668C22.2618 20.4259 21.8796 19.9146 21.699 19.3216L21.599 19.0216L17.592 21.2756L17.692 21.4946C18.907 24.0766 21.208 25.3866 24.532 25.3866C26.1926 25.4433 27.8278 24.9678 29.199 24.0296C29.8216 23.5854 30.3231 22.9924 30.6577 22.3048C30.9924 21.6171 31.1496 20.8566 31.115 20.0926C31.1485 19.0743 30.8354 18.0748 30.227 17.2576Z" fill="#5733D1"/>
<path d="M44.331 13.1192V8.69922H33.464V13.1192H36.2V19.4002C36.2 21.6372 36.813 23.2202 38.02 24.1072C39.1972 24.8347 40.5736 25.173 41.954 25.0742C42.6712 25.07 43.3877 25.026 44.1 24.9422L44.331 24.9162V20.7292L44.056 20.7442C43.4171 20.7853 42.7765 20.7906 42.137 20.7602C41.7617 20.7634 41.3967 20.6378 41.103 20.4042C40.9831 20.2687 40.8923 20.1101 40.8362 19.9381C40.7801 19.766 40.76 19.5843 40.777 19.4042V13.1192H44.331Z" fill="#5733D1"/>
<path d="M57.062 8.38415C55.9968 8.37242 54.9477 8.64513 54.023 9.17415C53.4262 9.51758 52.9191 9.99731 52.543 10.5742V8.69915H47.965V24.9432H52.547V17.1672C52.4891 16.5897 52.5827 16.0072 52.8188 15.477C53.0548 14.9468 53.4251 14.4874 53.893 14.1442C54.819 13.5318 55.9365 13.2783 57.036 13.4312L57.327 13.4662V8.38415H57.062Z" fill="#5733D1"/>
<path d="M38.628 7.05879C38.2261 7.06196 37.8279 6.98267 37.4579 6.8258C37.088 6.66893 36.7541 6.43783 36.477 6.14679C36.1857 5.86946 35.9545 5.53527 35.7976 5.16493C35.6407 4.79458 35.5615 4.39597 35.565 3.99379C35.5633 3.58935 35.6432 3.18873 35.7999 2.81588C35.9566 2.44303 36.1869 2.10561 36.477 1.82379C36.7516 1.52824 37.0845 1.29296 37.4548 1.13287C37.8251 0.972773 38.2246 0.891361 38.628 0.893791C39.0377 0.888609 39.444 0.968599 39.8212 1.12869C40.1983 1.28878 40.5381 1.52548 40.819 1.82379C41.1088 2.10576 41.3388 2.44323 41.4954 2.81606C41.6519 3.1889 41.7317 3.58944 41.73 3.99379C41.7332 4.39555 41.654 4.7937 41.4973 5.16365C41.3406 5.53361 41.1098 5.86753 40.819 6.14479C40.5357 6.4389 40.1951 6.67176 39.8183 6.82897C39.4414 6.98619 39.0363 7.0644 38.628 7.05879Z" fill="#00EBB0"/>
<path d="M67.553 25.1762C65.7159 25.1738 63.9547 24.4429 62.6558 23.1438C61.3568 21.8446 60.6261 20.0833 60.624 18.2462V8.69922H65.31V18.2462C65.3224 18.833 65.5642 19.3916 65.9836 19.8023C66.403 20.2129 66.9666 20.4429 67.5535 20.4429C68.1405 20.4429 68.704 20.2129 69.1234 19.8023C69.5428 19.3916 69.7846 18.833 69.797 18.2462V8.69922H74.483V18.2462C74.4809 20.0835 73.7501 21.845 72.4509 23.1441C71.1518 24.4433 69.3903 25.1741 67.553 25.1762Z" fill="#5733D1"/>
<path d="M93.821 8.46687C92.1296 8.46744 90.4973 9.08993 89.235 10.2159C88.2376 9.32825 87.0046 8.74823 85.6849 8.5458C84.3652 8.34337 83.015 8.52716 81.7974 9.07502C80.5798 9.62287 79.5468 10.5114 78.8229 11.6333C78.099 12.7553 77.7153 14.0627 77.718 15.3979V24.9449H82.404V15.3979C82.3977 15.0993 82.4511 14.8024 82.561 14.5247C82.6709 14.247 82.8352 13.994 83.0441 13.7806C83.2531 13.5672 83.5025 13.3976 83.7779 13.2819C84.0532 13.1661 84.3489 13.1065 84.6475 13.1065C84.9462 13.1065 85.2419 13.1661 85.5172 13.2819C85.7925 13.3976 86.042 13.5672 86.2509 13.7806C86.4599 13.994 86.6241 14.247 86.7341 14.5247C86.844 14.8024 86.8973 15.0993 86.891 15.3979V24.9449H91.577V15.3979C91.577 15.1032 91.6351 14.8115 91.7478 14.5393C91.8606 14.2671 92.0258 14.0198 92.2341 13.8115C92.4425 13.6031 92.6898 13.4379 92.962 13.3251C93.2342 13.2124 93.5259 13.1544 93.8205 13.1544C94.1152 13.1544 94.4069 13.2124 94.6791 13.3251C94.9513 13.4379 95.1986 13.6031 95.4069 13.8115C95.6153 14.0198 95.7805 14.2671 95.8933 14.5393C96.006 14.8115 96.064 15.1032 96.064 15.3979V24.9449H100.75V15.3979C100.748 13.5606 100.018 11.799 98.7186 10.4997C97.4197 9.20031 95.6583 8.46925 93.821 8.46687Z" fill="#5733D1"/>
</svg>
