<svg width="726" height="185" viewBox="0 0 726 185" fill="none" xmlns="http://www.w3.org/2000/svg">
<path d="M124.845 0.000127688H47.7457C41.4705 -0.0148995 35.2544 1.29658 29.4543 3.85929C23.6542 6.42199 18.3848 10.1854 13.9482 14.9333C9.51167 19.6813 5.99533 25.3202 3.60172 31.5262C1.20811 37.7322 -0.0158 44.3829 0.000153986 51.0965V133.577C-0.0151665 140.29 1.20953 146.941 3.60379 153.146C5.99805 159.351 9.5147 164.99 13.9518 169.737C18.3889 174.484 23.6591 178.246 29.4593 180.808C35.2596 183.369 41.4758 184.679 47.7507 184.663H124.845C131.121 184.68 137.338 183.37 143.138 180.809C148.939 178.248 154.21 174.486 158.647 169.739C163.085 164.991 166.602 159.353 168.997 153.147C171.391 146.941 172.616 140.291 172.601 133.577V51.0965C172.435 37.6008 167.351 24.7076 158.431 15.1634C149.511 5.6192 137.46 0.178475 124.845 0.000127688V0.000127688Z" fill="#5733D1"/>
<path d="M123.694 61.216H63.8582C63.112 61.3361 62.3511 61.1444 61.7334 60.6806C61.1157 60.2168 60.6887 59.5165 60.5405 58.7248C60.3924 57.9332 60.5347 57.1111 60.9379 56.4286C61.3411 55.7462 61.9742 55.2559 62.7062 55.0594H126.593C126.048 50.7387 123.927 46.8244 120.693 44.1717C117.459 41.519 113.375 40.3438 109.334 40.9029H108.758L48.9028 52.0044C48.0917 51.9125 47.2761 52.1288 46.599 52.6155H45.4472C42.0274 53.5327 39.0113 55.6911 36.9132 58.7223C34.8152 61.7535 33.7651 65.4697 33.9427 69.2368V125.247C34.0123 129.469 35.6109 133.497 38.4015 136.482C41.1921 139.468 44.9569 141.178 48.9028 141.252H124.275C128.22 141.178 131.986 139.468 134.776 136.482C137.567 133.497 139.165 129.469 139.235 125.247V77.2212C139.23 75.0679 138.821 72.9378 138.031 70.9573C137.241 68.9768 136.086 67.1865 134.636 65.6932C133.186 64.1998 131.47 63.0339 129.59 62.2648C127.71 61.4956 125.705 61.1389 123.694 61.216V61.216ZM112.761 109.226C111.282 109.225 109.837 108.756 108.608 107.876C107.379 106.997 106.421 105.747 105.856 104.286C105.291 102.824 105.143 101.216 105.432 99.6644C105.72 98.1131 106.432 96.688 107.478 95.5695C108.523 94.451 109.855 93.6893 111.305 93.3805C112.756 93.0716 114.259 93.2296 115.625 93.8345C116.991 94.4393 118.159 95.4639 118.981 96.7787C119.803 98.0935 120.242 99.6394 120.243 101.221C120.209 103.333 119.411 105.348 118.016 106.842C116.622 108.336 114.739 109.193 112.765 109.232L112.761 109.226Z" fill="white"/>
<path d="M356.667 67.7642L329.051 167.466H297.983L283.599 108.986C282.378 104.798 281.795 100.427 281.871 96.0412H281.3C280.724 100.965 280.144 105.274 279.572 108.355L264.612 167.466H234.121L207.08 67.7487H236.996L250.233 132.991C250.964 136.633 251.35 140.343 251.385 144.067H251.961C252.537 139.759 253.113 135.451 253.689 132.37L270.377 67.7383H298.569L313.529 132.981C314.112 136.646 314.496 140.344 314.681 144.057H315.257C315.553 140.321 316.131 136.617 316.985 132.981L329.641 67.7383L356.667 67.7642Z" fill="#5733D1"/>
<path d="M490.684 168.096H461.34V20.3682H490.684V168.096Z" fill="#5733D1"/>
<path d="M544.77 168.096H515.44V20.3682H544.784L544.77 168.096Z" fill="#5733D1"/>
<path d="M655.806 126.851H593.077C594.233 141.624 602.858 148.397 619.546 148.397C629.285 148.681 638.887 145.899 647.162 140.397V162.553C636.385 167.971 624.54 170.506 612.644 169.942C597.113 169.942 585.028 165.634 576.398 156.402C572.004 151.4 568.614 145.488 566.437 139.031C564.26 132.574 563.343 125.708 563.742 118.856C563.404 111.629 564.455 104.404 566.83 97.6282C569.205 90.8524 572.853 84.6697 577.55 79.4622C581.977 74.6662 587.269 70.8834 593.105 68.3438C598.941 65.8042 605.198 64.5609 611.497 64.6894C617.417 64.2978 623.347 65.2484 628.9 67.4792C634.452 69.7101 639.501 73.1707 643.717 77.6344C651.652 87.2955 655.776 99.8728 655.221 112.72V126.877L655.806 126.851ZM628.766 107.77C628.766 93.6136 623.011 86.2247 612.078 86.2247C609.756 86.1946 607.458 86.7337 605.36 87.8009C603.263 88.8681 601.422 90.4349 599.978 92.3813C596.4 96.6653 594.185 102.053 593.652 107.77H628.766Z" fill="#5733D1"/>
<path d="M377.914 96.6895C383.589 94.9092 389.353 93.4709 395.178 92.3814C401.58 90.8017 408.296 91.6719 414.16 94.8408C415.882 96.3004 417.251 98.1802 418.152 100.323C419.054 102.465 419.463 104.808 419.344 107.154H402.08C388.276 107.154 378.495 109.614 371.589 115.154C368.543 117.821 366.124 121.216 364.527 125.065C362.93 128.914 362.199 133.11 362.393 137.316C362.22 143.544 363.61 149.707 366.42 155.165C369.629 159.779 373.763 163.565 378.519 166.245C384.539 168.878 391.006 170.136 397.506 169.937C414.765 169.937 419.944 160.099 419.944 160.099V168.715H444.685V111.467C444.685 96.6945 441.811 84.9975 434.328 77.6137C426.846 70.2298 416.498 65.9167 400.957 66.5328C390.105 67.1447 379.417 69.6403 369.314 73.9218L377.914 96.6895ZM418.763 136.084C418.763 136.084 417.611 147.781 403.232 147.781C399.372 148.055 395.533 146.975 392.298 144.705C390.976 143.929 389.892 142.76 389.178 141.34C388.463 139.919 388.149 138.308 388.272 136.7C388.272 129.311 394.021 126.235 404.955 126.235H418.763V136.084Z" fill="#5733D1"/>
<path d="M694.342 56.0685C692.382 56.1189 690.437 55.7035 688.646 54.8519C686.855 54.0004 685.263 52.734 683.984 51.1443C682.557 49.7261 681.413 48.0129 680.622 46.1084C679.83 44.2038 679.409 42.1474 679.381 40.0635C679.334 37.9679 679.723 35.8871 680.519 33.9716C681.315 32.0562 682.498 30.3539 683.984 28.9877C685.31 27.4607 686.911 26.2371 688.691 25.3907C690.472 24.5443 692.394 24.0927 694.342 24.0633C696.309 23.9528 698.272 24.3414 700.072 25.1971C701.872 26.0529 703.458 27.3517 704.699 28.9877C706.127 30.4049 707.271 32.1171 708.062 34.0208C708.853 35.9245 709.274 37.9803 709.302 40.0635C709.349 42.1598 708.96 44.2411 708.164 46.1573C707.368 48.0736 706.185 49.7768 704.699 51.1443C703.373 52.6711 701.772 53.8946 699.992 54.741C698.212 55.5873 696.29 56.0388 694.342 56.0685V56.0685Z" fill="#00EBB0"/>
<path d="M725.981 95.4621V67.7598H663.27V94.8407H679.377V134.235C679.377 147.781 682.828 158.24 689.734 163.164C696.558 167.883 704.652 170.048 712.748 169.321C716.79 169.425 720.834 169.219 724.848 168.705H726V142.235H724.272C720.633 142.548 716.977 142.548 713.338 142.235C711.034 142.181 708.811 141.317 707.013 139.775C705.763 138.013 705.15 135.826 705.285 133.619V94.2297L726 95.4621H725.981Z" fill="#5733D1"/>
</svg>
